<svg width="22" height="22" viewBox="0 0 22 22" fill="none" xmlns="http://www.w3.org/2000/svg">
<path d="M17.6528 20.378L17.6628 20.3681L20.6671 17.3866C20.6672 17.3864 20.6673 17.3863 20.6674 17.3862C20.8134 17.24 20.8624 17.0961 20.8433 16.9184C20.8127 16.7867 20.7268 16.6515 20.5129 16.518L16.2738 14.014H16.2493L16.1306 13.9427C16.0854 13.9156 15.9823 13.8784 15.7777 13.8784C15.5442 13.8784 15.3494 13.9505 15.1722 14.1036L13.8971 15.4012L13.894 15.4043C13.7837 15.5146 13.6493 15.5716 13.5519 15.6041L13.5516 15.6042C13.4838 15.6268 13.3659 15.6637 13.2466 15.6637H13.197L13.1485 15.654L12.8664 15.5975C12.6067 15.5457 12.2842 15.4092 11.9233 15.2249C11.5358 15.0271 11.071 14.7274 10.5342 14.3363L10.5341 14.3363C9.97746 13.9306 9.35464 13.3725 8.6671 12.6699C7.96485 11.9826 7.40986 11.3631 7.0113 10.8131C6.62786 10.284 6.33237 9.81973 6.13446 9.42463C5.91073 8.99262 5.75415 8.58494 5.68207 8.20653L5.67324 8.16017V8.11297C5.67324 7.99215 5.70188 7.87812 5.7328 7.78537C5.76541 7.68755 5.82245 7.55327 5.93269 7.44304L7.04003 6.33569C7.16336 6.21236 7.24703 6.06002 7.28849 5.86308C7.32533 5.68806 7.30147 5.54914 7.22898 5.42026L7.22228 5.40836L7.22245 5.40827L4.81471 0.840312C4.74243 0.730454 4.65838 0.641391 4.56251 0.569491C4.50204 0.524137 4.43505 0.5 4.34274 0.5C4.21805 0.5 4.10058 0.542486 3.97313 0.669937L0.967488 3.67558L0.95819 3.68488L0.948417 3.69367C0.854497 3.7782 0.762707 3.89921 0.680031 4.07047C0.598668 4.23901 0.549011 4.3959 0.525266 4.54215C0.522466 4.61959 0.514465 4.77044 0.502997 4.97687C0.490851 5.19549 0.514667 5.52753 0.587979 5.9894C0.657974 6.43036 0.793379 6.96907 0.999497 7.60951C1.19943 8.23073 1.50312 8.93462 1.91571 9.72291L1.91572 9.72293C2.32333 10.5018 2.86645 11.3581 3.54885 12.2927C4.22249 13.2153 5.07742 14.1893 6.1175 15.2145L6.12208 15.219L6.12205 15.219C7.43087 16.5428 8.65413 17.5723 9.79151 18.3159L9.51791 18.7344L9.79152 18.3159C10.9501 19.0734 11.9728 19.6327 12.862 20.0013C13.7692 20.3775 14.5112 20.6026 15.0963 20.6921C15.7348 20.7898 16.1655 20.8333 16.4106 20.8333C16.5226 20.8333 16.6023 20.8297 16.6546 20.8245L17.6528 20.378ZM17.6528 20.378L17.6434 20.3885C17.5587 20.4825 17.4377 20.5744 17.2668 20.6568L17.2666 20.6569C17.0961 20.7392 16.9376 20.7891 16.7901 20.8125C16.7478 20.8151 16.6976 20.8201 16.6553 20.8244L16.6547 20.8244L17.6528 20.378Z" stroke="white"/>
</svg>
