<svg width="116" height="69" viewBox="0 0 116 69" fill="none" xmlns="http://www.w3.org/2000/svg">
<path d="M21.77 10.85V35H16.415V14.595H7.875V35H2.52V10.85H21.77ZM35.9568 10.57C38.0568 10.57 39.7251 10.7567 40.9618 11.13C42.2218 11.48 43.1318 12.11 43.6918 13.02C44.2518 13.93 44.5318 15.2133 44.5318 16.87C44.5318 18.5967 44.1934 19.915 43.5168 20.825C42.8634 21.7117 41.7784 22.225 40.2618 22.365V22.54C42.1284 22.7033 43.4351 23.3333 44.1818 24.43C44.9284 25.5267 45.3018 27.0433 45.3018 28.98C45.3018 30.6367 45.0101 31.92 44.4268 32.83C43.8668 33.74 42.9801 34.3817 41.7668 34.755C40.5534 35.105 38.9901 35.28 37.0768 35.28C35.5134 35.28 34.1484 35.2683 32.9818 35.245C31.8384 35.245 30.7768 35.2217 29.7968 35.175C28.8401 35.1283 27.8484 35.07 26.8218 35V10.85C27.7318 10.7567 28.6184 10.6983 29.4818 10.675C30.3684 10.6283 31.3251 10.605 32.3518 10.605C33.3784 10.5817 34.5801 10.57 35.9568 10.57ZM35.6768 14.455C34.9768 14.455 34.3234 14.455 33.7168 14.455C33.1101 14.455 32.5501 14.455 32.0368 14.455V20.79H35.9568C37.2634 20.79 38.1618 20.58 38.6518 20.16C39.1651 19.74 39.4218 18.8767 39.4218 17.57C39.4218 16.2867 39.1534 15.4467 38.6168 15.05C38.0801 14.6533 37.1001 14.455 35.6768 14.455ZM36.0268 24.185H32.0368V31.395C33.2501 31.395 34.6151 31.395 36.1318 31.395C37.1118 31.395 37.8818 31.3017 38.4418 31.115C39.0018 30.9283 39.3868 30.59 39.5968 30.1C39.8301 29.61 39.9468 28.8867 39.9468 27.93C39.9468 26.95 39.8301 26.1917 39.5968 25.655C39.3634 25.1183 38.9551 24.745 38.3718 24.535C37.8118 24.3017 37.0301 24.185 36.0268 24.185ZM53.0228 10.85L57.7828 20.895H58.3078L63.1028 10.85H68.4928L62.5778 22.575L68.9828 35H63.5228L58.2728 24.185H57.8178L52.5678 35H47.1428L53.5128 22.575L47.5978 10.85H53.0228Z" fill="white"/>
<path d="M34.04 37.36C35.9533 37.36 37.5633 37.57 38.87 37.99C40.2 38.3867 41.2733 39.0633 42.09 40.02C42.9067 40.9767 43.5017 42.26 43.875 43.87C44.2483 45.48 44.435 47.4983 44.435 49.925C44.435 52.3517 44.2483 54.37 43.875 55.98C43.5017 57.59 42.9067 58.8733 42.09 59.83C41.2733 60.7867 40.2 61.4633 38.87 61.86C37.5633 62.2567 35.9533 62.455 34.04 62.455C32.1267 62.455 30.505 62.2567 29.175 61.86C27.845 61.4633 26.7717 60.7867 25.955 59.83C25.1383 58.8733 24.5433 57.59 24.17 55.98C23.82 54.37 23.645 52.3517 23.645 49.925C23.645 47.4983 23.82 45.48 24.17 43.87C24.5433 42.26 25.1383 40.9767 25.955 40.02C26.7717 39.0633 27.845 38.3867 29.175 37.99C30.505 37.57 32.1267 37.36 34.04 37.36ZM34.04 41.56C32.8033 41.56 31.835 41.805 31.135 42.295C30.4583 42.785 29.9683 43.6367 29.665 44.85C29.385 46.0633 29.245 47.755 29.245 49.925C29.245 52.095 29.385 53.7867 29.665 55C29.9683 56.2133 30.4583 57.065 31.135 57.555C31.835 58.0217 32.8033 58.255 34.04 58.255C35.2533 58.255 36.21 58.0217 36.91 57.555C37.61 57.065 38.1 56.2133 38.38 55C38.66 53.7867 38.8 52.095 38.8 49.925C38.8 47.755 38.66 46.0633 38.38 44.85C38.1 43.6367 37.61 42.785 36.91 42.295C36.21 41.805 35.2533 41.56 34.04 41.56ZM53.9367 37.85V44.675C53.9367 45.6783 53.8433 46.6467 53.6567 47.58H55.3717C56.585 47.58 57.5417 47.2417 58.2417 46.565C58.9417 45.8883 59.5483 44.8383 60.0617 43.415C60.575 41.9683 61.1583 40.1133 61.8117 37.85H67.2367C66.5833 39.8333 66.0233 41.525 65.5567 42.925C65.09 44.325 64.6 45.4683 64.0867 46.355C63.5967 47.2417 62.99 47.9183 62.2667 48.385C61.5667 48.8517 60.645 49.155 59.5017 49.295V49.47C60.715 49.6333 61.695 49.96 62.4417 50.45C63.2117 50.9167 63.865 51.6283 64.4017 52.585C64.9617 53.5183 65.4983 54.755 66.0117 56.295C66.525 57.835 67.155 59.7367 67.9017 62H62.3017C61.6717 59.9467 61.1233 58.2317 60.6567 56.855C60.2133 55.455 59.77 54.3583 59.3267 53.565C58.8833 52.7483 58.3583 52.165 57.7517 51.815C57.145 51.465 56.3633 51.29 55.4067 51.29H53.6567C53.75 51.71 53.82 52.1183 53.8667 52.515C53.9133 52.9117 53.9367 53.2967 53.9367 53.67V62H48.6167V37.85H53.9367ZM106.785 37.85C107.229 37.85 107.614 37.9783 107.94 38.235C108.29 38.4917 108.524 38.83 108.64 39.25L115.64 62H110.18L108.395 55.595H100.065L98.3153 62H92.8553L99.8553 39.25C99.972 38.83 100.194 38.4917 100.52 38.235C100.87 37.9783 101.267 37.85 101.71 37.85H106.785ZM103.25 44.22L101.185 51.605H107.275L105.245 44.22C105.129 43.8467 105.024 43.4617 104.93 43.065C104.86 42.645 104.79 42.2483 104.72 41.875H103.775C103.705 42.2483 103.624 42.645 103.53 43.065C103.437 43.4617 103.344 43.8467 103.25 44.22Z" fill="white"/>
<path d="M76.3594 37.85V47.125H84.9694V37.85H90.2894V62H84.9694V51.115H76.3594V62H71.0044V37.85H76.3594Z" fill="#FF9900"/>
</svg>
