<svg width="101" height="101" viewBox="0 0 101 101" fill="none" xmlns="http://www.w3.org/2000/svg">
<path d="M92.3449 44.125L50.5299 8.39004C49.9649 7.90704 49.1299 7.91004 48.5709 8.39804L7.64588 44.005C7.02088 44.549 6.95488 45.496 7.49888 46.121C8.04288 46.746 8.99088 46.811 9.61488 46.268L18.4329 38.596V86.468C18.4329 87.2961 19.1039 87.968 19.9329 87.968H78.5379C79.3659 87.968 80.0379 87.2961 80.0379 86.468V37.554L90.3949 46.405C90.6779 46.647 91.0239 46.765 91.3689 46.765C91.7929 46.765 92.2139 46.587 92.5109 46.24C93.0489 45.61 92.9749 44.663 92.3449 44.125ZM77.0379 84.969H21.4329V35.986L49.5639 11.51L77.0379 34.99V84.969Z" fill="black"/>
<path d="M33.45 41.326V70.1061C33.45 70.9341 34.121 71.6061 34.95 71.6061H63.728C64.556 71.6061 65.2279 70.9341 65.2279 70.1061V41.326C65.2279 40.497 64.556 39.826 63.728 39.826H34.95C34.122 39.826 33.45 40.497 33.45 41.326ZM50.949 68.6061V57.217H62.228V68.6061H50.949ZM62.229 54.217H50.949V42.826H62.228V54.217H62.229ZM36.45 42.826H47.949V55.161C47.88 55.333 47.84 55.52 47.84 55.717C47.84 55.914 47.88 56.101 47.949 56.273V68.6051H36.45V42.826Z" fill="black"/>
</svg>
