<svg width="101" height="101" viewBox="0 0 101 101" fill="none" xmlns="http://www.w3.org/2000/svg">
<path d="M62.7859 73.3309C62.0219 73.0119 61.1429 73.3659 60.8199 74.1289C59.0379 78.3449 54.9299 81.0679 50.3559 81.0679C45.9949 81.0679 41.9659 78.5179 40.0919 74.5729C39.7369 73.8259 38.8439 73.5049 38.0929 73.8619C37.3439 74.2159 37.0259 75.1119 37.3819 75.8599C39.7499 80.8459 44.8429 84.0679 50.3559 84.0679C56.1389 84.0679 61.3309 80.6249 63.5839 75.2969C63.9059 74.5339 63.5499 73.6539 62.7859 73.3309Z" fill="black"/>
<path d="M42.9751 59.134C43.5281 58.517 43.4761 57.569 42.8591 57.016C42.2411 56.463 41.2951 56.515 40.7411 57.132C38.9001 59.187 37.0581 60.19 35.2481 60.098C32.4461 59.964 30.4341 57.278 30.4121 57.248C29.9251 56.58 28.9901 56.433 28.3211 56.918C27.6501 57.404 27.5011 58.343 27.9871 59.014C28.1011 59.171 30.8331 62.874 35.0751 63.093C35.2091 63.1 35.3421 63.104 35.4751 63.104C38.0921 63.104 40.6141 61.77 42.9751 59.134Z" fill="black"/>
<path d="M69.7911 57.132C67.9511 59.186 66.1021 60.194 64.2981 60.098C61.5041 59.965 59.4941 57.296 59.4581 57.248C58.9711 56.58 58.0331 56.434 57.3661 56.919C56.6951 57.405 56.5471 58.343 57.0331 59.014C57.1471 59.171 59.8811 62.875 64.1261 63.093C64.2591 63.101 64.3921 63.104 64.5241 63.104C67.1421 63.104 69.6641 61.77 72.0251 59.134C72.5781 58.517 72.5261 57.569 71.9091 57.016C71.2921 56.462 70.3421 56.515 69.7911 57.132Z" fill="black"/>
<path d="M85.363 44.2099C85.127 40.118 83.855 29.196 77.006 22.773C73.235 19.236 68.388 17.64 62.607 18.032C59.24 18.26 56.169 18.529 53.459 18.765C36.585 20.242 31.493 20.686 26.288 6.18595C26.058 5.54195 25.39 5.13795 24.705 5.20195C24.509 5.22095 24.318 5.27795 24.143 5.36995C23.704 5.60195 13.357 11.189 10.332 22.399C8.48896 29.227 9.78496 36.5809 14.18 44.2809C7.69496 45.2859 2.70996 50.8889 2.70996 57.6489C2.70996 65.1239 8.78696 71.205 16.257 71.205H17.232C22.392 85.007 35.179 94.808 50.109 94.808C65.035 94.808 77.818 85.008 82.977 71.205H83.747C91.215 71.205 97.291 65.1239 97.291 57.6489C97.29 50.7269 92.069 45.0089 85.363 44.2099ZM13.22 23.208C15.258 15.617 21.314 10.794 24.107 8.91495C29.966 23.83 37.161 23.2 53.72 21.753C56.415 21.517 59.471 21.25 62.81 21.024C67.721 20.689 71.807 22.0129 74.947 24.9529C81.101 30.7169 82.186 41.177 82.377 44.644C69.234 47.581 64.699 33.5389 64.509 32.9249C64.341 32.3779 63.876 31.974 63.311 31.884C62.741 31.794 62.178 32.0339 61.848 32.5029C53.49 44.3909 39.844 46.892 34.365 47.416C27.186 48.101 20.485 46.784 17.578 44.132C12.967 36.656 11.5 29.616 13.22 23.208ZM5.70996 57.6489C5.70996 52.334 9.66696 47.938 14.787 47.219V57.6489C14.787 61.3149 15.302 64.856 16.247 68.204C10.436 68.199 5.70996 63.466 5.70996 57.6489ZM50.108 91.808C32.286 91.808 17.787 76.485 17.787 57.65V47.914C20.926 49.649 25.417 50.604 30.515 50.604C31.856 50.604 33.24 50.5379 34.651 50.403C40.205 49.872 53.572 47.441 62.687 36.353C64.887 40.9539 70.779 49.9609 82.42 47.695V57.65C82.42 76.4839 67.925 91.808 50.108 91.808ZM83.963 68.194C84.906 64.8489 85.42 61.312 85.42 57.6489V47.249C90.439 48.052 94.29 52.403 94.29 57.6489C94.29 63.396 89.676 68.077 83.963 68.194Z" fill="black"/>
</svg>
