<svg width="101" height="101" viewBox="0 0 101 101" fill="none" xmlns="http://www.w3.org/2000/svg">
<path d="M49.982 17.0149C31.427 17.0149 16.332 32.1109 16.332 50.6649C16.332 69.2189 31.428 84.3149 49.982 84.3149C68.537 84.3149 83.633 69.2189 83.633 50.6649C83.633 32.1109 68.537 17.0149 49.982 17.0149ZM49.982 80.7079C33.416 80.7079 19.938 67.2309 19.938 50.6649C19.938 34.0989 33.416 20.6209 49.982 20.6209C66.548 20.6209 80.025 34.0989 80.025 50.6649C80.025 67.2309 66.548 80.7079 49.982 80.7079Z" fill="black"/>
<path d="M58.4851 45.1979L51.2271 52.4559V26.6399C51.2271 25.6439 50.4191 24.8369 49.4231 24.8369C48.4271 24.8369 47.6201 25.6439 47.6201 26.6399V56.8089C47.6201 56.9279 47.6321 57.0469 47.6561 57.1639C47.6661 57.2149 47.6851 57.2619 47.7001 57.3119C47.7181 57.3749 47.7331 57.4389 47.7591 57.5009C47.7841 57.5609 47.8181 57.6149 47.8491 57.6719C47.8741 57.7189 47.8951 57.7669 47.9251 57.8119C48.0571 58.0099 48.2281 58.1799 48.4261 58.3129C48.4631 58.3379 48.5031 58.3539 48.5411 58.3749C48.6051 58.4109 48.6671 58.4489 48.7361 58.4779C48.7901 58.4999 48.8471 58.5129 48.9021 58.5299C48.9591 58.5469 49.0131 58.5689 49.0721 58.5799C49.1881 58.6029 49.3061 58.6159 49.4241 58.6159C49.5421 58.6159 49.6601 58.6039 49.7761 58.5799C49.8351 58.5679 49.8901 58.5469 49.9471 58.5289C50.0021 58.5119 50.0581 58.4999 50.1121 58.4779C50.1821 58.4489 50.2461 58.4099 50.3111 58.3729C50.3481 58.3519 50.3861 58.3369 50.4221 58.3129C50.5231 58.2459 50.6171 58.1699 50.7011 58.0839L61.0361 47.7489C61.7401 47.0449 61.7401 45.9029 61.0361 45.1989C60.3311 44.4929 59.1901 44.4929 58.4851 45.1979Z" fill="black"/>
<path d="M49.9831 9.04395C27.0331 9.04395 8.36206 27.7149 8.36206 50.6659C8.36206 73.6169 27.0331 92.2869 49.9831 92.2869C72.9331 92.2869 91.6051 73.616 91.6051 50.6659C91.6051 27.7159 72.9331 9.04395 49.9831 9.04395ZM49.9831 88.6789C29.0221 88.6789 11.9681 71.6259 11.9681 50.6649C11.9681 29.7039 29.0211 12.6499 49.9831 12.6499C70.9451 12.6499 87.9971 29.7039 87.9971 50.6649C87.9971 71.6259 70.9441 88.6789 49.9831 88.6789Z" fill="black"/>
</svg>
