<svg width="96" height="96" viewBox="0 0 96 96" fill="none" xmlns="http://www.w3.org/2000/svg">
<path fill-rule="evenodd" clip-rule="evenodd" d="M47.044 83.4151C38.3616 78.0716 30.2844 71.7826 22.9572 64.6607C17.8058 59.5318 13.884 53.2791 11.4924 46.3815C7.18858 33.0012 12.2157 17.6833 26.2845 13.1501C33.6785 10.7697 41.7538 12.1302 47.9844 16.8059C54.2173 12.1359 62.2898 10.7759 69.6843 13.1501C83.753 17.6833 88.8163 33.0012 84.5125 46.3815C82.1209 53.2791 78.1992 59.5318 73.0477 64.6607C65.7205 71.7826 57.6433 78.0716 48.9609 83.4151L48.0205 84L47.044 83.4151Z" stroke="black" stroke-width="4" stroke-linecap="round" stroke-linejoin="round"/>
<path d="M62.957 28.2119C67.2183 29.5731 70.2459 33.3987 70.6243 37.8998" stroke="black" stroke-width="4" stroke-linecap="round" stroke-linejoin="round"/>
</svg>
