<svg width="33" height="33" viewBox="0 0 33 33" fill="none" xmlns="http://www.w3.org/2000/svg">
<path fill-rule="evenodd" clip-rule="evenodd" d="M28.9056 16C28.9056 15.6249 28.6015 15.3208 28.2264 15.3208L6.49055 15.3208C6.11541 15.3208 5.8113 15.6249 5.8113 16C5.8113 16.3752 6.11541 16.6793 6.49055 16.6793L28.2264 16.6793C28.6015 16.6793 28.9056 16.3752 28.9056 16Z" fill="#333333"/>
<path fill-rule="evenodd" clip-rule="evenodd" d="M11.7256 10.7651C11.4604 10.4998 11.0303 10.4998 10.765 10.7651L5.53 16.0001L10.765 21.2351C11.0303 21.5004 11.4604 21.5004 11.7256 21.2351C11.9909 20.9699 11.9909 20.5398 11.7256 20.2745L7.4512 16.0001L11.7256 11.7257C11.9909 11.4604 11.9909 11.0304 11.7256 10.7651Z" fill="#333333"/>
</svg>
