<svg width="33" height="33" viewBox="0 0 33 33" fill="none" xmlns="http://www.w3.org/2000/svg">
<path fill-rule="evenodd" clip-rule="evenodd" d="M4.45288 16C4.45288 15.6249 4.75699 15.3208 5.13213 15.3208L26.868 15.3208C27.2431 15.3208 27.5472 15.6249 27.5472 16C27.5472 16.3752 27.2431 16.6793 26.868 16.6793L5.13213 16.6793C4.75699 16.6793 4.45288 16.3752 4.45288 16Z" fill="black"/>
<path fill-rule="evenodd" clip-rule="evenodd" d="M21.633 10.7651C21.8983 10.4998 22.3284 10.4998 22.5936 10.7651L27.8286 16.0001L22.5936 21.2351C22.3284 21.5004 21.8983 21.5004 21.633 21.2351C21.3678 20.9699 21.3678 20.5398 21.633 20.2745L25.9074 16.0001L21.633 11.7257C21.3678 11.4604 21.3678 11.0304 21.633 10.7651Z" fill="black"/>
</svg>
