<svg width="30" height="30" viewBox="0 0 30 30" fill="none" xmlns="http://www.w3.org/2000/svg">
<path fill-rule="evenodd" clip-rule="evenodd" d="M2.23638 4.90275C2.68451 4.16077 5.15354 1.46199 6.91547 1.54346C7.44216 1.58711 7.90774 1.90572 8.28602 2.27526C9.15462 3.12345 11.6411 6.33143 11.7822 7.00648C12.1256 8.66212 10.1527 9.61651 10.7565 11.2852C12.2958 15.0519 14.9482 17.7041 18.7165 19.2419C20.3838 19.8457 21.3383 17.8729 22.994 18.2177C23.6676 18.3588 26.8772 20.8452 27.7255 21.7137C28.0936 22.0905 28.4137 22.5575 28.4573 23.0842C28.5228 24.9392 25.6566 27.443 25.0979 27.7631C23.7797 28.7058 22.0599 28.6898 19.9634 27.715C14.1131 25.2811 4.76361 16.1081 2.2844 10.037C1.33578 7.95215 1.2703 6.22086 2.23638 4.90275Z" stroke="black" stroke-width="2" stroke-linecap="round" stroke-linejoin="round"/>
</svg>
